<svg xmlns="http://www.w3.org/2000/svg" version="1.1" xmlns:xlink="http://www.w3.org/1999/xlink" xmlns:svgjs="http://svgjs.dev/svgjs" width="2000" height="439" viewBox="0 0 2000 439"><g transform="matrix(1,0,0,1,-1.2121212121212466,-0.4018516222978974)"><svg viewBox="0 0 396 87" data-background-color="#ffffff" preserveAspectRatio="xMidYMid meet" height="439" width="2000" xmlns="http://www.w3.org/2000/svg" xmlns:xlink="http://www.w3.org/1999/xlink"><g id="tight-bounds" transform="matrix(1,0,0,1,0.2400000000000091,0.07963802081985705)"><svg viewBox="0 0 395.52 85.8407239583603" height="85.8407239583603" width="395.52"><g><svg viewBox="0 0 395.52 85.8407239583603" height="85.8407239583603" width="395.52"><g><svg viewBox="0 0 395.52 85.8407239583603" height="85.8407239583603" width="395.52"><g id="textblocktransform"><svg viewBox="0 0 395.52 85.8407239583603" height="85.8407239583603" width="395.52" id="textblock"><g><rect width="395.52" height="71.97613805804221" fill="none" stroke-width="8.962371322224001" stroke="#000000" data-fill-palette-color="none" data-stroke-palette-color="tertiary"></rect><rect width="395.52" height="14.864585900318087" y="71.97613805804221" fill="#000000" data-fill-palette-color="tertiary"></rect></g><g><svg viewBox="0 0 395.52 70.97613805804221" height="70.97613805804221" width="395.52"><g transform="matrix(1,0,0,1,23.461705032,23.461705031999998)"><svg width="348.596589936" viewBox="0 -35.8 518.81 35.8" height="24.05272799404221" data-palette-color="#6b7280"><path d="M0-2.15L4.85-2.15 4.85-34.95 29.4-34.95 29.4-29.4 10.75-29.4 10.75-20.15 27.5-20.15 27.5-14.9 10.75-14.9 10.75-5.55 30-5.55 30-2.15 34.85-2.15 34.85 0 0 0 0-2.15ZM57.95-2.15L64.2-2.15 64.2 0 32.7 0 32.7-2.15 39.1-2.15Q36.7-3.4 34.7-5.25L34.7-5.25 38.4-9.7Q43.7-5.1 49.4-5.1L49.4-5.1Q52.25-5.1 53.92-6.33 55.6-7.55 55.6-9.58 55.6-11.6 54.02-12.73 52.45-13.85 48.6-14.78 44.75-15.7 42.75-16.48 40.75-17.25 39.2-18.5L39.2-18.5Q36.1-20.85 36.1-25.7 36.1-30.55 39.62-33.18 43.15-35.8 48.35-35.8L48.35-35.8Q51.7-35.8 55-34.7 58.3-33.6 60.7-31.6L60.7-31.6 57.55-27.15Q56-28.55 53.35-29.45 50.7-30.35 48.12-30.35 45.55-30.35 43.9-29.3 42.25-28.25 42.25-26.13 42.25-24 43.9-22.88 45.55-21.75 50.92-20.45 56.3-19.15 59.02-16.8 61.75-14.45 61.75-10.2L61.75-10.2Q61.75-5.05 57.95-2.15L57.95-2.15ZM74.95-2.15L98.4-2.15 98.4 0 64.2 0 64.2-2.15 69.05-2.15 69.05-34.95 81.05-34.95Q89-34.95 92.65-31.9 96.3-28.85 96.3-22.5 96.3-16.15 92.57-13.2 88.85-10.25 81.15-10.25L81.15-10.25 74.95-10.25 74.95-2.15ZM81.8-15.6Q86.7-15.6 88.47-17.48 90.25-19.35 90.25-22.98 90.25-26.6 88-28.1 85.75-29.6 80.95-29.6L80.95-29.6 74.95-29.6 74.95-15.6 81.8-15.6ZM131.19-2.15L136.04-2.15 136.04 0 125.24 0 116.89-11.75 109.14-11.75 109.14 0 98.39 0 98.39-2.15 103.24-2.15 103.24-34.95 116.24-34.95Q124.24-34.95 127.69-32.25 131.14-29.55 131.14-23.6L131.14-23.6Q131.14-14.95 123.59-12.7L123.59-12.7 131.19-2.15ZM116.49-17.1Q121.49-17.1 123.29-18.65 125.09-20.2 125.09-23.63 125.09-27.05 123.24-28.33 121.39-29.6 116.64-29.6L116.64-29.6 109.14-29.6 109.14-17.1 116.49-17.1ZM134.79-2.15L139.64-2.15 139.64-34.95 164.19-34.95 164.19-29.4 145.54-29.4 145.54-20.15 162.29-20.15 162.29-14.9 145.54-14.9 145.54-5.55 164.79-5.55 164.79-2.15 169.64-2.15 169.64 0 134.79 0 134.79-2.15ZM192.74-2.15L198.99-2.15 198.99 0 167.49 0 167.49-2.15 173.89-2.15Q171.49-3.4 169.49-5.25L169.49-5.25 173.19-9.7Q178.49-5.1 184.19-5.1L184.19-5.1Q187.04-5.1 188.71-6.33 190.39-7.55 190.39-9.58 190.39-11.6 188.81-12.73 187.24-13.85 183.39-14.78 179.54-15.7 177.54-16.48 175.54-17.25 173.99-18.5L173.99-18.5Q170.89-20.85 170.89-25.7 170.89-30.55 174.41-33.18 177.94-35.8 183.14-35.8L183.14-35.8Q186.49-35.8 189.79-34.7 193.09-33.6 195.49-31.6L195.49-31.6 192.34-27.15Q190.79-28.55 188.14-29.45 185.49-30.35 182.91-30.35 180.34-30.35 178.69-29.3 177.04-28.25 177.04-26.13 177.04-24 178.69-22.88 180.34-21.75 185.71-20.45 191.09-19.15 193.81-16.8 196.54-14.45 196.54-10.2L196.54-10.2Q196.54-5.05 192.74-2.15L192.74-2.15ZM224.24-2.15L230.49-2.15 230.49 0 198.99 0 198.99-2.15 205.39-2.15Q202.99-3.4 200.99-5.25L200.99-5.25 204.69-9.7Q209.99-5.1 215.69-5.1L215.69-5.1Q218.54-5.1 220.21-6.33 221.89-7.55 221.89-9.58 221.89-11.6 220.31-12.73 218.74-13.85 214.89-14.78 211.04-15.7 209.04-16.48 207.04-17.25 205.49-18.5L205.49-18.5Q202.39-20.85 202.39-25.7 202.39-30.55 205.91-33.18 209.44-35.8 214.64-35.8L214.64-35.8Q217.99-35.8 221.29-34.7 224.59-33.6 226.99-31.6L226.99-31.6 223.84-27.15Q222.29-28.55 219.64-29.45 216.99-30.35 214.41-30.35 211.84-30.35 210.19-29.3 208.54-28.25 208.54-26.13 208.54-24 210.19-22.88 211.84-21.75 217.21-20.45 222.59-19.15 225.31-16.8 228.04-14.45 228.04-10.2L228.04-10.2Q228.04-5.05 224.24-2.15L224.24-2.15ZM261.03-2.15L272.48-2.15 272.48 0 230.48 0 230.48-2.15 241.93-2.15Q237.83-4.5 235.46-8.6 233.08-12.7 233.08-17.75L233.08-17.75Q233.08-25.45 238.38-30.63 243.68-35.8 251.48-35.8 259.28-35.8 264.58-30.63 269.88-25.45 269.88-17.75L269.88-17.75Q269.88-12.75 267.51-8.6 265.13-4.45 261.03-2.15L261.03-2.15ZM260.26-26.7Q256.68-30.4 251.48-30.4 246.28-30.4 242.71-26.7 239.13-23 239.13-17.73 239.13-12.45 242.71-8.75 246.28-5.05 251.48-5.05 256.68-5.05 260.26-8.75 263.83-12.45 263.83-17.73 263.83-23 260.26-26.7ZM272.48-2.15L286.18-2.15 286.18 0 272.48 0 272.48-2.15ZM286.18-2.15L291.03-2.15 291.03-34.95 315.58-34.95 315.58-29.4 296.93-29.4 296.93-20.15 313.68-20.15 313.68-14.9 296.93-14.9 296.93-5.55 316.18-5.55 316.18-2.15 321.03-2.15 321.03 0 286.18 0 286.18-2.15ZM326.98 0L316.23 0 316.23-2.15 321.02-2.15 331.63-17.95 320.48-34.95 327.77-34.95 335.57-23.15 335.82-23.15 343.63-34.95 350.93-34.95 339.77-17.95 350.32-2.15 355.18-2.15 355.18 0 344.43 0 335.82-13.15 335.57-13.15 326.98 0ZM363.27-2.15L386.72-2.15 386.72 0 352.52 0 352.52-2.15 357.37-2.15 357.37-34.95 369.37-34.95Q377.32-34.95 380.97-31.9 384.62-28.85 384.62-22.5 384.62-16.15 380.9-13.2 377.17-10.25 369.47-10.25L369.47-10.25 363.27-10.25 363.27-2.15ZM370.12-15.6Q375.02-15.6 376.8-17.48 378.57-19.35 378.57-22.98 378.57-26.6 376.32-28.1 374.07-29.6 369.27-29.6L369.27-29.6 363.27-29.6 363.27-15.6 370.12-15.6ZM419.52-2.15L424.37-2.15 424.37 0 413.57 0 405.22-11.75 397.47-11.75 397.47 0 386.72 0 386.72-2.15 391.57-2.15 391.57-34.95 404.57-34.95Q412.57-34.95 416.02-32.25 419.47-29.55 419.47-23.6L419.47-23.6Q419.47-14.95 411.92-12.7L411.92-12.7 419.52-2.15ZM404.82-17.1Q409.82-17.1 411.62-18.65 413.42-20.2 413.42-23.63 413.42-27.05 411.57-28.33 409.72-29.6 404.97-29.6L404.97-29.6 397.47-29.6 397.47-17.1 404.82-17.1ZM423.12-2.15L427.97-2.15 427.97-34.95 452.52-34.95 452.52-29.4 433.87-29.4 433.87-20.15 450.62-20.15 450.62-14.9 433.87-14.9 433.87-5.55 453.12-5.55 453.12-2.15 457.97-2.15 457.97 0 423.12 0 423.12-2.15ZM481.06-2.15L487.31-2.15 487.31 0 455.81 0 455.81-2.15 462.21-2.15Q459.81-3.4 457.81-5.25L457.81-5.25 461.51-9.7Q466.81-5.1 472.51-5.1L472.51-5.1Q475.36-5.1 477.04-6.33 478.71-7.55 478.71-9.58 478.71-11.6 477.14-12.73 475.56-13.85 471.71-14.78 467.86-15.7 465.86-16.48 463.86-17.25 462.31-18.5L462.31-18.5Q459.21-20.85 459.21-25.7 459.21-30.55 462.74-33.18 466.26-35.8 471.46-35.8L471.46-35.8Q474.81-35.8 478.11-34.7 481.41-33.6 483.81-31.6L483.81-31.6 480.66-27.15Q479.11-28.55 476.46-29.45 473.81-30.35 471.24-30.35 468.66-30.35 467.01-29.3 465.36-28.25 465.36-26.13 465.36-24 467.01-22.88 468.66-21.75 474.04-20.45 479.41-19.15 482.14-16.8 484.86-14.45 484.86-10.2L484.86-10.2Q484.86-5.05 481.06-2.15L481.06-2.15ZM512.56-2.15L518.81-2.15 518.81 0 487.31 0 487.31-2.15 493.71-2.15Q491.31-3.4 489.31-5.25L489.31-5.25 493.01-9.7Q498.31-5.1 504.01-5.1L504.01-5.1Q506.86-5.1 508.54-6.33 510.21-7.55 510.21-9.58 510.21-11.6 508.64-12.73 507.06-13.85 503.21-14.78 499.36-15.7 497.36-16.48 495.36-17.25 493.81-18.5L493.81-18.5Q490.71-20.85 490.71-25.7 490.71-30.55 494.24-33.18 497.76-35.8 502.96-35.8L502.96-35.8Q506.31-35.8 509.61-34.7 512.91-33.6 515.31-31.6L515.31-31.6 512.16-27.15Q510.61-28.55 507.96-29.45 505.31-30.35 502.74-30.35 500.16-30.35 498.51-29.3 496.86-28.25 496.86-26.13 496.86-24 498.51-22.88 500.16-21.75 505.54-20.45 510.91-19.15 513.64-16.8 516.36-14.45 516.36-10.2L516.36-10.2Q516.36-5.05 512.56-2.15L512.56-2.15Z" opacity="1" transform="matrix(1,0,0,1,0,0)" fill="#000000" class="wordmark-text-0" data-fill-palette-color="primary" id="text-0"></path></svg></g></svg></g><g transform="matrix(1,0,0,1,126.91697911677791,70.97613805804221)"><svg viewBox="0 0 141.68604176644416 14.864585900318087" height="14.864585900318087" width="141.68604176644416"><g transform="matrix(1,0,0,1,20,3.2)"><svg width="101.68604176644416" viewBox="1.75 -35.9 549.54 45.75" height="8.464585900318086" data-palette-color="#ffffff"><path d="M10.9-14.2L10.9-14.2 10.25-12.3 22.2-12.3 21.55-14.25 16.3-30.45Q15.7-28.3 10.9-14.2ZM9.1-8.85L6.1 0 1.75 0 13.5-33.7 19.1-33.7 30.65 0 26.3 0 23.35-8.85 9.1-8.85ZM65.7-4.65L65.7-0.9Q63.3 0.55 59.8 0.55L59.8 0.55Q53.8 0.55 50.27-3.28 46.75-7.1 46.75-12.6L46.75-12.6Q46.75-18 50.27-21.9 53.8-25.8 59.9-25.8L59.9-25.8Q63.15-25.8 65.7-24.4L65.7-24.4 65.7-20.65Q63.4-22.2 60.3-22.2L60.3-22.2Q56-22.2 53.42-19.43 50.85-16.65 50.85-12.55L50.85-12.55Q50.9-8.45 53.35-5.73 55.8-3 60.3-3L60.3-3Q63.2-3 65.7-4.65L65.7-4.65ZM94.09-12.6L94.09-12.6Q94.09-6.95 90.89-3.25 87.69 0.45 82.09 0.45L82.09 0.45Q76.64 0.45 73.47-3.23 70.29-6.9 70.29-12.5L70.29-12.5Q70.29-18.15 73.57-21.93 76.84-25.7 82.09-25.7L82.09-25.7Q87.84-25.7 90.97-22 94.09-18.3 94.09-12.6ZM74.39-12.55L74.39-12.55Q74.39-8.6 76.49-5.83 78.59-3.05 82.09-3.05L82.09-3.05Q85.89-3.05 87.94-5.78 89.99-8.5 89.99-12.55L89.99-12.55Q89.99-16.75 88.04-19.48 86.09-22.2 82.09-22.2L82.09-22.2Q78.49-22.2 76.44-19.4 74.39-16.6 74.39-12.55ZM133.79-17.4L133.79 0 129.84 0 129.84-16.4Q129.84-22.15 124.99-22.15L124.99-22.15Q122.59-22.15 120.69-19.98 118.79-17.8 118.79-13.85L118.79-13.85 118.79 0 114.84 0 114.84-16.4Q114.84-22.15 109.99-22.15L109.99-22.15Q107.59-22.15 105.69-19.98 103.79-17.8 103.79-13.85L103.79-13.85 103.79 0 99.89 0 99.89-25.35 103.79-25.35 103.79-21.25Q105.89-25.7 110.94-25.7L110.94-25.7Q116.79-25.7 118.34-20.75L118.34-20.75Q119.44-23.15 121.42-24.43 123.39-25.7 125.84-25.7L125.84-25.7Q129.79-25.7 131.79-23.45 133.79-21.2 133.79-17.4L133.79-17.4ZM144.69-3.85L144.69 9.85 140.79 9.85 140.79-25.35 144.69-25.35 144.69-21.5Q147.34-25.75 152.54-25.75L152.54-25.75Q157.59-25.75 160.46-22.08 163.34-18.4 163.34-12.9L163.34-12.9Q163.34-7.05 160.31-3.33 157.29 0.4 152.44 0.4L152.44 0.4Q147.44 0.4 144.69-3.85L144.69-3.85ZM144.69-12.65L144.69-12.65Q144.69-7.8 146.94-5.5 149.19-3.2 151.94-3.2L151.94-3.2Q155.14-3.2 157.19-5.73 159.24-8.25 159.24-12.9L159.24-12.9Q159.24-17.05 157.24-19.6 155.24-22.15 152.19-22.15 149.14-22.15 146.91-19.93 144.69-17.7 144.69-12.65ZM173.29-35.35L173.29 0 169.34 0 169.34-35.35 173.29-35.35ZM199.28-5L199.28-1.3Q196.33 0.25 192.08 0.25L192.08 0.25Q186.33 0.25 182.81-3.28 179.28-6.8 179.28-12.6L179.28-12.6Q179.28-18.65 182.43-22.15 185.58-25.65 190.53-25.65L190.53-25.65Q195.28-25.65 198.08-22.6 200.88-19.55 200.88-13.95L200.88-13.95Q200.88-12.35 200.63-11L200.63-11 183.33-11Q183.78-7.25 186.18-5.25 188.58-3.25 192.48-3.25L192.48-3.25Q196.73-3.25 199.28-5L199.28-5ZM190.53-22.2L190.53-22.2Q187.68-22.2 185.68-20.15 183.68-18.1 183.33-14.3L183.33-14.3 196.93-14.3 196.93-15.3Q196.93-18.45 195.23-20.33 193.53-22.2 190.53-22.2ZM219.58-4.4L219.58-0.65Q217.93 0.25 215.88 0.25L215.88 0.25Q208.38 0.25 208.38-7.4L208.38-7.4 208.38-22.15 204.33-22.15 204.33-25.35 208.38-25.35 208.38-31.65 212.33-31.65 212.33-25.35 219.33-25.35 219.33-22.15 212.33-22.15 212.33-7.3Q212.33-3.25 216.13-3.25L216.13-3.25Q218.08-3.25 219.58-4.4L219.58-4.4ZM243.83-5L243.83-1.3Q240.88 0.25 236.63 0.25L236.63 0.25Q230.88 0.25 227.35-3.28 223.83-6.8 223.83-12.6L223.83-12.6Q223.83-18.65 226.98-22.15 230.13-25.65 235.08-25.65L235.08-25.65Q239.83-25.65 242.63-22.6 245.43-19.55 245.43-13.95L245.43-13.95Q245.43-12.35 245.18-11L245.18-11 227.88-11Q228.33-7.25 230.73-5.25 233.13-3.25 237.03-3.25L237.03-3.25Q241.28-3.25 243.83-5L243.83-5ZM235.08-22.2L235.08-22.2Q232.23-22.2 230.23-20.15 228.23-18.1 227.88-14.3L227.88-14.3 241.48-14.3 241.48-15.3Q241.48-18.45 239.78-20.33 238.08-22.2 235.08-22.2ZM290.02-33.7L278.27 0 273.17 0 261.77-33.7 266.12-33.7 270.52-20.35 275.77-3.65Q277.72-9.95 281.17-20.35L281.17-20.35 285.67-33.7 290.02-33.7ZM303.22-3.05L303.22-3.05Q305.92-3.05 307.52-4.58 309.12-6.1 309.12-8.45L309.12-8.45 309.12-11.7 304.72-11.7Q301.52-11.7 299.92-10.45 298.32-9.2 298.32-7.3 298.32-5.4 299.57-4.23 300.82-3.05 303.22-3.05ZM309.17 0L309.17-3Q307.22 0.25 302.07 0.25L302.07 0.25Q298.52 0.25 296.35-1.85 294.17-3.95 294.17-7.15L294.17-7.15Q294.17-10.8 296.95-12.83 299.72-14.85 304.52-14.85L304.52-14.85 309.12-14.85 309.12-16.15Q309.12-19.15 307.77-20.68 306.42-22.2 303.22-22.2L303.22-22.2Q299.17-22.2 296.02-20.05L296.02-20.05 296.02-24Q298.87-25.75 303.52-25.75L303.52-25.75Q313.07-25.75 313.07-16.05L313.07-16.05 313.07 0 309.17 0ZM340.07-17.45L340.07 0 336.12 0 336.12-16.4Q336.12-19.2 334.69-20.68 333.27-22.15 330.97-22.15L330.97-22.15Q328.12-22.15 326.04-19.95 323.97-17.75 323.97-13.85L323.97-13.85 323.97 0 320.07 0 320.07-25.35 323.97-25.35 323.97-20.95Q326.22-25.7 331.97-25.7L331.97-25.7Q335.67-25.7 337.87-23.45 340.07-21.2 340.07-17.45L340.07-17.45ZM351.22-25.35L351.22 0 347.27 0 347.27-25.35 351.22-25.35ZM351.07-35.15Q351.82-34.4 351.82-33.3 351.82-32.2 351.07-31.48 350.32-30.75 349.22-30.75 348.12-30.75 347.39-31.48 346.67-32.2 346.67-33.3 346.67-34.4 347.39-35.15 348.12-35.9 349.22-35.9 350.32-35.9 351.07-35.15ZM362.86-35.35L362.86 0 358.91 0 358.91-35.35 362.86-35.35ZM374.51-35.35L374.51 0 370.56 0 370.56-35.35 374.51-35.35ZM389.76-3.05L389.76-3.05Q392.46-3.05 394.06-4.58 395.66-6.1 395.66-8.45L395.66-8.45 395.66-11.7 391.26-11.7Q388.06-11.7 386.46-10.45 384.86-9.2 384.86-7.3 384.86-5.4 386.11-4.23 387.36-3.05 389.76-3.05ZM395.71 0L395.71-3Q393.76 0.25 388.61 0.25L388.61 0.25Q385.06 0.25 382.88-1.85 380.71-3.95 380.71-7.15L380.71-7.15Q380.71-10.8 383.48-12.83 386.26-14.85 391.06-14.85L391.06-14.85 395.66-14.85 395.66-16.15Q395.66-19.15 394.31-20.68 392.96-22.2 389.76-22.2L389.76-22.2Q385.71-22.2 382.56-20.05L382.56-20.05 382.56-24Q385.41-25.75 390.06-25.75L390.06-25.75Q399.61-25.75 399.61-16.05L399.61-16.05 399.61 0 395.71 0ZM417.06-33.7L417.06-8.65Q417.06 0 409.21 0L409.21 0Q406.41 0 404.46-1.1L404.46-1.1 404.46-5Q406.46-3.7 408.66-3.7L408.66-3.7Q413.01-3.7 413.01-8.3L413.01-8.3 413.01-33.7 417.06-33.7ZM444.2-8.95L444.2-8.95Q444.2-4.5 441.15-2.08 438.1 0.35 433.3 0.35L433.3 0.35Q428 0.35 424.3-1.8L424.3-1.8 424.3-6.15Q427.95-3.4 433.2-3.4L433.2-3.4Q436.35-3.4 438.15-4.8 439.95-6.2 439.95-8.85L439.95-8.85Q439.95-9.95 439.53-10.83 439.1-11.7 438.13-12.43 437.15-13.15 436.28-13.63 435.4-14.1 433.9-14.8L433.9-14.8Q433.6-14.95 433-15.2L433-15.2Q430.85-16.15 429.73-16.75 428.6-17.35 427.08-18.53 425.55-19.7 424.85-21.25 424.15-22.8 424.15-24.85L424.15-24.85Q424.15-29.15 427.23-31.58 430.3-34 434.95-34L434.95-34Q439.3-34 442.35-32.45L442.35-32.45 442.35-28.2Q439.3-30.2 435.05-30.2L435.05-30.2Q432-30.2 430.2-28.78 428.4-27.35 428.4-25.05L428.4-25.05Q428.4-23.85 428.88-22.9 429.35-21.95 430.55-21.13 431.75-20.3 432.6-19.88 433.45-19.45 435.25-18.65L435.25-18.65Q436.95-17.9 437.85-17.48 438.75-17.05 440.18-16.13 441.6-15.2 442.33-14.33 443.05-13.45 443.63-12.03 444.2-10.6 444.2-8.95ZM478.15-6.75L478.15-6.75Q478.15-3.5 475.87-1.6 473.6 0.3 469.65 0.3L469.65 0.3Q465.05 0.3 462.2-1.25L462.2-1.25 462.2-5.1Q465.55-3.1 469.4-3.1L469.4-3.1Q471.7-3.1 472.9-4 474.1-4.9 474.1-6.45L474.1-6.45Q474.1-8.25 472.77-9.25 471.45-10.25 468.35-11.5L468.35-11.5Q465.5-12.6 463.77-14.25 462.05-15.9 462.05-18.7L462.05-18.7Q462.05-21.85 464.42-23.73 466.8-25.6 470.35-25.6L470.35-25.6Q474.3-25.6 476.7-24.5L476.7-24.5 476.7-20.75Q474.4-22.15 470.4-22.15L470.4-22.15Q468.4-22.15 467.22-21.23 466.05-20.3 466.05-18.85L466.05-18.85Q466.05-17.95 466.4-17.28 466.75-16.6 467.77-15.95 468.8-15.3 469.27-15.08 469.75-14.85 471.35-14.15L471.35-14.15Q474.55-12.85 476.35-11.2 478.15-9.55 478.15-6.75ZM503.5-17.35L503.5 0 499.55 0 499.55-16.4Q499.55-19.15 498.12-20.65 496.7-22.15 494.4-22.15L494.4-22.15Q491.6-22.15 489.5-20 487.4-17.85 487.4-13.85L487.4-13.85 487.4 0 483.5 0 483.5-35.35 487.4-35.35 487.4-20.95Q489.65-25.7 495.4-25.7L495.4-25.7Q499.05-25.7 501.27-23.45 503.5-21.2 503.5-17.35L503.5-17.35ZM532.79-12.6L532.79-12.6Q532.79-6.95 529.59-3.25 526.39 0.45 520.79 0.45L520.79 0.45Q515.34 0.45 512.17-3.23 508.99-6.9 508.99-12.5L508.99-12.5Q508.99-18.15 512.27-21.93 515.54-25.7 520.79-25.7L520.79-25.7Q526.54-25.7 529.67-22 532.79-18.3 532.79-12.6ZM513.09-12.55L513.09-12.55Q513.09-8.6 515.19-5.83 517.29-3.05 520.79-3.05L520.79-3.05Q524.59-3.05 526.64-5.78 528.69-8.5 528.69-12.55L528.69-12.55Q528.69-16.75 526.74-19.48 524.79-22.2 520.79-22.2L520.79-22.2Q517.19-22.2 515.14-19.4 513.09-16.6 513.09-12.55ZM551.29-4.4L551.29-0.65Q549.64 0.25 547.59 0.25L547.59 0.25Q540.09 0.25 540.09-7.4L540.09-7.4 540.09-22.15 536.04-22.15 536.04-25.35 540.09-25.35 540.09-31.65 544.04-31.65 544.04-25.35 551.04-25.35 551.04-22.15 544.04-22.15 544.04-7.3Q544.04-3.25 547.84-3.25L547.84-3.25Q549.79-3.25 551.29-4.4L551.29-4.4Z" opacity="1" transform="matrix(1,0,0,1,0,0)" fill="#ffffff" class="slogan-text-1" data-fill-palette-color="quaternary" id="text-1"></path></svg></g></svg></g></svg></g></svg></g></svg></g><defs></defs></svg><rect width="395.52" height="85.8407239583603" fill="none" stroke="none" visibility="hidden"></rect></g></svg></g></svg>
